<?xml version="1.0" encoding="utf-8"?>
<!-- Generator: Adobe Illustrator 15.0.0, SVG Export Plug-In . SVG Version: 6.00 Build 0)  -->
<!DOCTYPE svg PUBLIC "-//W3C//DTD SVG 1.1//EN" "http://www.w3.org/Graphics/SVG/1.1/DTD/svg11.dtd">
<svg version="1.1" id="Layer_1" xmlns="http://www.w3.org/2000/svg" xmlns:xlink="http://www.w3.org/1999/xlink" x="0px" y="0px"
	 width="635px" height="226.77px" viewBox="0 0 635 226.77" enable-background="new 0 0 635 226.77" xml:space="preserve">
<g>
	<rect x="19.994" y="17.427" width="191.864" height="191.863"/>
	<g>
		<path fill="#FFFFFF" d="M175.5,100.629l4.917-3.588c-1.859-1.991-3.853-4.383-3.853-8.235c0-2.922,1.993-6.111,4.516-7.438
			c-1.329-1.595-3.455-3.053-6.508-3.053c-3.985,0-7.308,2.921-7.308,6.772c0,2.656,1.728,4.916,3.722,5.978
			C170.986,94.784,172.712,98.103,175.5,100.629 M149.203,74.462l4.117-7.307h-6.11c0,1.328-1.197,2.789-2.66,2.789
			c-1.59,0-2.653-1.062-2.653-2.789h-5.446c0,1.594-1.195,2.789-2.656,2.789c-1.46,0-2.657-1.195-2.657-2.789h-6.11l3.587,7.039
			c2.792-0.265,5.445-0.396,8.102-0.396C141.628,73.798,145.881,74.062,149.203,74.462 M138.044,139.28
			c-0.664-1.195-1.329-2.657-1.329-5.312c0-3.454,1.992-6.377,6.244-8.237c2.79-1.327,4.913-2.522,8.634-4.381
			c8.767-4.517,11.821-13.018,11.821-21.785c0-4.383-1.197-7.837-2.656-10.759c0.396,2.391,0.795,4.385,0.795,6.774
			c0,9.166-3.187,15.939-11.556,20.057c-5.311,2.655-7.971,3.719-11.159,5.313c-4.512,2.39-7.039,5.446-7.039,9.166
			C131.8,134.764,134.189,138.219,138.044,139.28 M132.863,137.555c-1.458-1.463-3.053-4.118-3.053-7.571
			c0-4.383,2.92-8.103,8.101-10.76c4.517-2.125,7.172-3.188,11.156-5.047c8.371-4.117,10.894-11.158,10.894-18.727
			c0-7.307-2.39-11.026-4.383-13.417c1.461,2.791,1.86,6.11,1.86,8.901c0,8.102-2.39,15.141-11.822,18.86
			c-4.782,1.992-7.837,2.655-11.954,4.514c-6.51,3.058-9.033,6.644-9.033,11.955C124.628,131.312,127.816,136.092,132.863,137.555
			 M127.816,136.492c-2.26-1.859-5.182-4.914-5.182-10.361c0-5.711,2.391-9.961,9.829-13.149c4.785-1.991,7.307-2.921,11.824-4.649
			c9.562-3.586,11.554-10.627,11.554-17.535c0-6.639-2.391-10.494-5.313-13.016c1.728,2.125,2.791,5.713,2.791,9.43
			c0,8.766-3.322,13.682-12.751,17.003c-3.853,1.194-7.969,2.39-12.221,3.983c-7.703,2.922-11.688,7.172-11.688,14.347
			C116.659,129.983,122.37,135.563,127.816,136.492 M122.503,135.563c-5.313-2.658-7.838-8.369-7.838-13.418
			c0-7.306,4.517-12.485,12.086-15.276c4.654-1.726,8.371-2.787,13.02-4.381c9.032-3.188,11.955-7.438,11.955-15.541
			c0-4.649-1.728-8.633-4.516-10.892c0.928,1.062,1.194,2.39,1.194,3.586c0,2.258-1.194,3.32-2.922,3.32
			c-1.063,0-2.127-0.664-2.259-1.726c0.531,0.396,0.932,0.531,1.464,0.531c1.458,0,2.256-1.063,2.256-2.524
			c0-2.258-2.125-3.454-4.25-3.719c-1.86-0.266-3.854-0.266-6.11-0.266c-2.256,0-4.383,0.132-7.172,0.266
			c1.726,2.391,7.438,1.728,9.164,2.922c-1.463-0.131-2.922-0.131-4.386,0.264c0,0.933-0.396,1.994-1.326,1.994
			c-1.727,0-2.524-1.858-3.719-5.18l-6.774,0.532c-1.063,0.132-1.461,0.531-1.33,1.328l0.666,6.642c0,0.264,0.266,0.397,0.533,0.397
			c0.264,0,0.528-0.133,0.662-0.533c0.267-0.531,1.065-1.726,3.056-1.726c2.922,0,5.18,2.658,5.311,5.71
			c-1.061-1.458-3.451-2.789-7.438-2.789c-3.054,0-5.576,0.93-9.562,0.93c-4.25,0-6.641-1.594-6.641-3.585
			c0-0.93,0.131-1.463,0.664-2.127c-1.728,0.798-3.055,2.261-3.055,4.65c0,2.921,2.127,5.979,8.366,5.979
			c5.711,0,8.371-3.587,13.549-3.587c2.391,0,3.588,1.194,3.588,2.524c0,1.195-1.065,2.258-2.922,2.258
			c-2.26,0-3.851-1.195-4.649-2.391c-0.133-0.267-0.267-0.397-0.533-0.397c-0.396,0-0.531,0.264-0.531,0.53l0.135,6.375
			c0,0.797,0.396,1.197,1.328,1.063c3.983-0.399,8.101-0.93,11.955-1.194c7.172-0.664,12.088-5.449,12.088-10.76
			c0-0.797,0-1.463-0.133-2.258c0.661,1.063,0.928,2.125,0.928,3.453c0,4.916-2.655,8.635-11.155,10.894
			c-4.519,1.194-7.838,1.725-11.692,2.655c-10.228,2.392-16.867,10.228-16.867,18.996C108.69,127.194,114.401,134.5,122.503,135.563
			 M78.004,87.611c0.533-1.194,0.666-2.258,0.666-3.055c0-1.727-0.798-3.32-1.594-3.983c1.992,0,3.718,1.459,3.718,3.453
			C80.793,85.884,79.599,87.081,78.004,87.611 M102.446,119.224l4.25-2.258c1.461-8.897,6.772-15.141,16.071-17.4
			c-4.913,0.265-9.166,0.397-15.141,0.664c-6.375,0.265-16.869,1.064-24.174,1.595c-1.463,0.133-2.391-0.4-2.791-1.595
			c-0.397-1.328-1.195-3.852-1.328-5.313c-0.135-1.197,0.132-1.994,1.196-2.789c2.124-1.463,4.25-3.188,4.25-6.774
			c0-3.852-3.321-6.375-6.376-6.375c-1.062,0-1.859,0.131-2.523,0.396c-0.799-0.529-1.594-0.928-3.188-0.928
			c-2.261,0-4.25,1.461-4.783,2.656c-3.85-0.265-6.905,2.524-6.641,6.244c0.531-0.533,1.594-1.062,2.791-1.062
			c1.458,0,2.789,1.062,2.789,2.656c0,1.461-0.267,3.322-0.267,5.312c0,6.113,4.916,9.301,4.916,12.487
			c0,1.595-1.197,2.922-2.791,2.922c0.93,3.321,3.986,5.047,8.102,5.047c2.657,0,5.049-0.265,8.899-0.265
			C96.735,114.442,101.514,115.638,102.446,119.224 M143.355,156.814h1.332c-0.138-4.252-1.197-7.174-2.922-10.226
			c-0.932-1.729-2.127-3.587-3.057-4.785c-0.531-0.797-1.196-1.06-1.992-1.06c-0.533,0-0.93,0.396-0.533,1.06
			c1.066,1.728,2.525,4.384,4.385,8.501c-1.594,0.267-1.993,1.063-1.993,2.391C138.575,154.821,140.568,156.814,143.355,156.814
			 M72.826,88.143c0.132-3.719-1.461-5.711-3.719-6.641c0.397-0.133,0.928-0.399,1.725-0.399c1.728,0,3.588,1.463,3.588,3.721
			C74.42,86.017,74.021,87.346,72.826,88.143 M157.968,181.652c-0.531-1.195-2.258-2.39-4.383-2.39c-1.197,0-1.992,0.266-2.525,0.53
			c0.134-1.062,1.197-2.258,3.321-2.258C156.904,177.535,158.232,179.528,157.968,181.652 M157.17,187.365
			c-0.797-0.93-2.124-1.728-3.851-1.728c-2.126,0-3.188,0.93-3.721,1.595c-0.265-1.595,1.064-3.586,3.588-3.586
			C155.842,183.646,157.17,185.505,157.17,187.365 M62.732,124.004c0.928-2.258,3.053-3.851,5.578-4.381
			c0.528-0.799,1.194-1.461,1.86-1.993l-4.517-18.863c-0.533-1.326-0.932-2.653-0.932-4.516c0-1.99,0.399-3.983,0.399-5.045
			c0-0.93-0.531-1.195-1.061-1.195c-0.4,0-0.666,0-0.797,0.132v0.533c0,3.053-1.862,5.445-4.916,5.445
			c-3.053,0-5.446-2.523-5.446-5.445c0-2.922,2.393-5.315,5.446-5.315c0.531,0,1.197,0,1.992,0.266
			c0.93-2.39,3.852-4.516,6.906-4.117c-2.124-2.658-5.312-4.251-8.898-4.251c-7.705,0-13.813,5.579-13.813,13.417
			c0,7.303,5.978,13.149,13.416,13.282L62.732,124.004z M83.32,152.562c1.991,0,4.117-1.063,6.108-3.052
			c3.586-3.456,8.635-8.637,11.69-10.63c2.656-1.726,4.383-2.389,6.109-2.389c1.063,0,1.862,0.266,2.657,1.062l4.517-3.455
			c-5.18-3.852-7.571-8.898-7.705-15.141c-7.172,3.851-12.352,9.166-18.332,14.211c-1.062,0.799-1.592,1.195-2.522,1.195
			c-0.931,0-1.728-0.929-3.322-2.523c-1.328-1.327-1.594-2.124-1.594-3.053c0-1.595,0.533-2.127,0.533-4.252
			c0-4.25-3.32-6.642-6.508-6.642c-2.658,0-4.65,1.461-5.313,3.321c-3.588,0.265-5.846,2.923-5.846,5.709
			c0,0.666,0.135,1.199,0.269,1.595c-1.328,0.799-2.66,2.392-2.66,4.519c0,2.258,1.196,4.383,3.19,5.046
			c-0.268-0.398-0.399-0.93-0.399-1.593c0-1.195,1.063-2.259,2.525-2.259c1.194,0,1.992,0.399,2.922,1.461
			c1.194,1.595,2.391,3.056,4.383,4.782c1.86,1.595,3.983,2.656,5.977,3.854c1.195,0.794,2.123,1.857,2.123,3.453
			c0,1.062-0.795,2.257-2.389,2.656C80.396,151.899,81.726,152.562,83.32,152.562 M75.748,126.662
			c-0.133-2.658-2.125-4.781-4.649-5.312c0.399-0.269,1.061-0.664,2.125-0.664c1.858,0,3.322,1.593,3.322,3.317
			C76.545,125.334,76.146,125.998,75.748,126.662 M90.491,196.53c-0.532-0.665-0.797-1.33-0.797-2.126
			c0-1.593,1.328-2.79,3.187-2.79c2.922,0,4.517,3.189,8.371,3.189c4.383,0,6.506-3.189,10.492-3.189
			c1.994,0,4.785,1.197,4.785,3.72c0,0.399-0.137,0.798-0.4,1.063c4.517,0,7.701-3.852,7.701-10.229
			c0-8.899-0.263-12.485-0.396-17.4c3.455-0.133,6.773-1.86,6.24-7.304c-0.929,0.795-1.99,1.194-3.185,1.194
			c-1.594,0-2.792-1.194-2.792-2.923c0-0.799,0-1.728,0.132-2.656l15.542-0.4c-1.461-0.795-2.523-2.389-2.523-4.248
			c0-1.328,0.531-2.258,1.595-2.791c-1.463-3.052-2.658-5.443-4.117-7.702c-0.799-1.194-1.728-2.392-3.588-2.392
			c-4.119-0.134-12.485,1.062-16.737,2.524c-3.187,1.062-6.244,3.453-6.244,8.896c0,5.051,1.728,13.949,1.594,27.896
			c0,1.994-0.531,2.658-1.725,2.922c-1.063,0.267-3.853,0.531-5.58,0.267c-0.928-0.135-1.727-0.797-2.258-2.789
			c-0.664-2.791-2.656-5.579-6.641-5.579c-3.588,0-6.772,2.657-6.242,6.641c-1.728,1.064-2.525,2.792-2.525,4.383
			c0,1.594,0.531,2.923,1.195,3.72c-0.398,0.931-0.529,1.46-0.529,2.392C85.047,194.14,87.969,196.53,90.491,196.53 M71.76,130.248
			c-0.795-1.594-2.522-2.522-4.516-2.522c-0.796,0-1.459,0.133-1.99,0.264c0.264-1.063,1.461-1.991,3.188-1.991
			C70.701,125.998,72.16,127.726,71.76,130.248 M95.008,181.652c-0.533-1.195-2.258-2.39-4.383-2.39
			c-1.196,0-1.994,0.266-2.524,0.53c0.131-1.062,1.197-2.258,3.322-2.258C93.944,177.535,95.272,179.528,95.008,181.652
			 M83.715,193.21c-0.395-0.798-0.528-1.596-0.528-2.392c0-0.798,0.133-1.461,0.397-2.126c-0.664-1.196-1.063-2.523-1.063-3.985
			c0-1.991,0.932-3.85,2.26-5.046l-8.235-35.731c-1.33-0.664-2.658-1.46-3.72-2.392c-1.86-1.594-2.922-2.788-4.649-4.78
			c-0.533-0.53-0.932-0.797-1.461-0.797c-0.8,0-1.328,0.531-1.062,1.594l1.726,8.233l3.585,2.525l9.961,42.769L83.715,193.21z
			 M94.213,187.365c-0.799-0.93-2.127-1.728-3.854-1.728c-2.127,0-3.188,0.93-3.721,1.595c-0.262-1.595,1.065-3.586,3.588-3.586
			C92.881,183.646,94.213,185.505,94.213,187.365 M28.593,197.326l8.103-6.244l9.963-42.769l3.586-2.525l7.971-34.268l-1.728-7.969
			c-1.994-0.399-3.721-0.93-5.18-1.727L28.593,197.326z M153.451,196.53c-0.531-0.665-0.796-1.33-0.796-2.126
			c0-1.593,1.327-2.79,3.188-2.79c2.922,0,4.518,3.189,8.37,3.189c4.381,0,6.508-3.189,10.492-3.189c1.993,0,4.783,1.197,4.783,3.72
			c0,0.399-0.134,0.798-0.398,1.063c4.517,0,7.704-3.852,7.704-10.229c0-8.5-0.795-17.93-1.728-27.362
			c2.392-0.531,4.65-2.922,4.65-5.978c0-1.062-0.396-2.258-1.062-3.318c-0.666,0.929-1.86,1.725-3.851,2.257
			c-2.791,0.795-6.244,1.194-8.77,1.194c-5.71,0-7.569-0.399-10.225-1.194c-0.135-3.587-2.391-6.51-4.516-8.502
			c3.319,1.328,4.78,1.992,10.093,1.992c17.002,0,27.496-11.422,27.496-24.44c0-9.431-5.979-13.812-11.424-17.001l-5.047,3.586
			c6.11,2.789,10.093,6.905,10.093,12.485c0,6.11-4.911,10.495-10.623,10.495c-6.112,0-10.892-4.385-10.892-10.362
			c0-4.515,2.122-7.836,6.108-11.024c3.985-3.187,10.096-7.039,13.417-10.625c1.728-1.863,3.187-4.784,3.054-7.043
			c2.257-1.061,3.985-3.318,3.985-6.242c0-3.851-3.717-6.772-7.702-6.772c-2.394,0-5.048,1.458-6.379,3.053
			c2.393,0.93,4.651,4.116,4.651,7.438c0,2.791-1.726,5.18-3.72,7.172c-3.055,3.057-7.039,5.315-11.423,8.901
			c-5.313,4.383-8.502,9.563-8.502,15.408c0,8.102,6.244,15.674,16.072,15.674c3.188,0,5.713-0.664,7.573-1.861
			c-3.189,3.72-9.165,5.58-15.408,5.58c-5.449,0-9.166-0.799-13.148-3.719c-3.588-2.656-6.377-8.899-6.245-13.549
			c-2.921,1.728-6.376,3.319-9.298,4.649c-4.119,1.992-5.446,4.117-5.446,7.702c0,4.783,3.321,8.502,4.78,11.291
			c1.994,3.586,2.658,6.774,2.922,10.094c0.799,8.105,5.449,11.824,13.683,11.824c3.721,0,8.632-0.266,10.626-0.534
			c0.796,3.723,1.727,8.104,1.727,11.425c0,1.994-0.532,2.658-1.727,2.922c-1.062,0.267-3.854,0.531-5.579,0.267
			c-0.928-0.135-1.727-0.797-2.26-2.789c-0.663-2.791-2.656-5.579-6.639-5.579c-3.588,0-6.775,2.657-6.244,6.641
			c-1.728,1.064-2.524,2.792-2.524,4.383c0,1.594,0.531,2.923,1.195,3.72c-0.399,0.931-0.532,1.46-0.532,2.392
			C148.005,194.14,150.928,196.53,153.451,196.53"/>
		<path d="M540.933,209.292h18.93v-6.257h-11.018v-4.439h10.657v-6.095h-10.657v-4.4h11.018v-6.258h-18.93V209.292z
			 M521.233,209.937c6.46,0,11.827-3.108,11.827-10.777v-17.316h-7.912v16.589c0,3.109-1.693,4.48-3.915,4.48
			c-2.22,0-3.913-1.371-3.913-4.48v-16.589h-7.912v17.316C509.408,206.828,514.776,209.937,521.233,209.937 M492.819,209.937
			c4.884,0,8.273-1.492,9.928-2.343v-12.147h-7.708v7.427c-0.566,0.12-1.172,0.201-1.776,0.201c-3.069,0-6.46-2.341-6.46-7.509
			c0-5.568,2.987-8.313,8.113-8.313c2.827,0,5.248,0.969,6.742,1.776v-6.46c-1.616-0.726-4.278-1.735-7.91-1.735
			c-9.326,0-15.583,5.772-15.583,14.732C478.165,204.529,485.146,209.937,492.819,209.937 M458.225,197.987l2.703-10.131h0.364
			l2.707,10.131H458.225z M467.023,209.292h8.114l-8.235-27.449h-11.584l-8.193,27.449h8.111l1.496-5.691h8.758L467.023,209.292z
			 M429.808,194.517v-6.819h3.188c2.141,0,3.392,1.654,3.392,3.389c0,1.738-1.251,3.431-3.392,3.431H429.808z M421.895,209.292
			h7.913v-9.648h2.018l4.763,9.648h8.921l-5.043-8.479c-0.524-0.887-1.171-1.693-1.536-1.937l0.042-0.162
			c2.421-1.089,5.852-3.149,5.852-7.83c0-4.925-3.915-9.042-10.331-9.042h-12.598V209.292z M401.594,194.517v-6.78h3.107
			c1.734,0,3.308,1.452,3.308,3.39c0,1.98-1.573,3.391-3.308,3.391H401.594z M393.682,209.292h7.912v-8.882h4.036
			c6.419,0,10.413-4.074,10.413-9.122c0-5.046-3.994-9.445-10.413-9.445h-11.948V209.292z M349.482,209.292h7.912v-16.468h0.119
			l8.317,16.468h9.646v-27.449h-7.91v16.388h-0.121l-8.233-16.388h-9.729V209.292z M333.499,209.292h7.91v-27.449h-7.91V209.292z
			 M303.67,209.937c6.456,0,11.824-3.108,11.824-10.777v-17.316h-7.912v16.589c0,3.109-1.692,4.48-3.912,4.48
			c-2.222,0-3.915-1.371-3.915-4.48v-16.589h-7.913v17.316C291.842,206.828,297.21,209.937,303.67,209.937 M272.146,209.292h7.91
			V188.26h6.822v-6.417h-21.594v6.417h6.863V209.292z M254.141,209.734c3.269,0,6.014-0.848,7.669-1.693v-6.903
			c-1.574,0.848-3.391,1.574-6.257,1.574s-7.022-2.18-7.022-7.146c0-4.964,3.794-7.306,7.469-7.306c2.502,0,4.237,0.566,5.771,1.332
			v-6.821c-1.615-0.725-3.631-1.291-6.863-1.291c-8.111,0-15.013,5.33-15.013,14.086
			C239.893,204.325,246.07,209.734,254.141,209.734"/>
		<path d="M507.104,168.188h7.913v-10.052l9.487-17.4h-8.763l-4.479,9.812h-0.161l-4.318-9.812h-8.961l9.282,17.4V168.188z
			 M484.058,168.835c4.885,0,8.276-1.494,9.93-2.342v-12.152h-7.709v7.429c-0.563,0.122-1.171,0.2-1.776,0.2
			c-3.068,0-6.456-2.341-6.456-7.505c0-5.572,2.984-8.316,8.111-8.316c2.823,0,5.249,0.97,6.741,1.774v-6.456
			c-1.616-0.73-4.279-1.737-7.913-1.737c-9.324,0-15.581,5.771-15.581,14.735C469.404,163.425,476.388,168.835,484.058,168.835
			 M450.876,161.811c-3.509,0-5.285-2.826-5.285-7.346c0-4.521,1.776-7.347,5.285-7.347c3.554,0,5.211,2.825,5.211,7.347
			C456.087,158.984,454.43,161.811,450.876,161.811 M450.876,168.835c8.195,0,13.685-5.208,13.685-14.37
			c0-9.164-5.489-14.372-13.685-14.372c-8.152,0-13.764,5.208-13.764,14.372C437.112,163.627,442.724,168.835,450.876,168.835
			 M416.568,168.188h17.721v-6.499h-9.809v-20.953h-7.912V168.188z M396.427,161.811c-3.511,0-5.288-2.826-5.288-7.346
			c0-4.521,1.777-7.347,5.288-7.347c3.554,0,5.206,2.825,5.206,7.347C401.633,158.984,399.98,161.811,396.427,161.811
			 M396.427,168.835c8.194,0,13.683-5.208,13.683-14.37c0-9.164-5.488-14.372-13.683-14.372c-8.154,0-13.766,5.208-13.766,14.372
			C382.661,163.627,388.272,168.835,396.427,168.835 M350.207,168.188h7.912v-16.47h0.123l8.314,16.47h9.647v-27.452h-7.912v16.392
			h-0.122l-8.233-16.392h-9.729V168.188z M318.201,140.736v27.452h7.912v-10.74h8.112v10.74h7.911v-27.452h-7.911v10.499h-8.112
			v-10.499H318.201z M304.558,168.631c3.268,0,6.013-0.847,7.668-1.694v-6.903c-1.573,0.848-3.391,1.574-6.257,1.574
			s-7.024-2.181-7.024-7.143c0-4.967,3.796-7.308,7.471-7.308c2.503,0,4.237,0.564,5.771,1.332v-6.821
			c-1.615-0.728-3.634-1.292-6.863-1.292c-8.112,0-15.014,5.328-15.014,14.089C290.309,163.222,296.483,168.631,304.558,168.631
			 M265.767,168.188h18.933v-6.259h-11.02v-4.439h10.656v-6.095h-10.656v-4.4h11.02v-6.259h-18.933V168.188z M245.866,168.188h7.912
			v-21.031h6.82v-6.421h-21.595v6.421h6.863V168.188z"/>
		<path d="M583.435,127.085h7.912v-16.469h0.122l8.315,16.469h9.648v-27.45h-7.912v16.389h-0.122l-8.234-16.389h-9.729V127.085z
			 M563.294,120.706c-3.512,0-5.287-2.826-5.287-7.346c0-4.523,1.775-7.347,5.287-7.347c3.553,0,5.206,2.824,5.206,7.347
			C568.5,117.88,566.847,120.706,563.294,120.706 M563.294,127.729c8.194,0,13.685-5.206,13.685-14.369
			c0-9.162-5.49-14.372-13.685-14.372c-8.155,0-13.764,5.21-13.764,14.372C549.53,122.523,555.139,127.729,563.294,127.729
			 M535.158,127.085h7.912v-27.45h-7.912V127.085z M515.26,127.085h7.913v-21.03h6.819v-6.42h-21.595v6.42h6.862V127.085z
			 M491.363,115.781l2.706-10.132h0.362l2.705,10.132H491.363z M500.164,127.085h8.114l-8.236-27.45h-11.586l-8.194,27.45h8.117
			l1.491-5.693h8.758L500.164,127.085z M446.074,127.085h7.549v-16.752h0.121l7.103,11.667h0.566l6.781-11.706h0.121v16.792h7.71
			v-27.45h-9.163l-5.653,9.73h-0.119l-5.649-9.73h-9.366V127.085z M424.642,112.31v-6.821h3.188c2.139,0,3.393,1.655,3.393,3.392
			c0,1.735-1.254,3.429-3.393,3.429H424.642z M416.729,127.085h7.913v-9.647h2.017l4.764,9.647h8.92l-5.043-8.479
			c-0.527-0.887-1.171-1.694-1.535-1.937l0.04-0.161c2.42-1.091,5.852-3.148,5.852-7.832c0-4.926-3.914-9.042-10.331-9.042h-12.596
			V127.085z M396.588,120.706c-3.513,0-5.288-2.826-5.288-7.346c0-4.523,1.775-7.347,5.288-7.347c3.552,0,5.205,2.824,5.205,7.347
			C401.793,117.88,400.14,120.706,396.588,120.706 M396.588,127.729c8.194,0,13.684-5.206,13.684-14.369
			c0-9.162-5.489-14.372-13.684-14.372c-8.155,0-13.765,5.21-13.765,14.372C382.823,122.523,388.433,127.729,396.588,127.729
			 M359.209,99.635v27.45h7.911v-10.617h10.739v-6.094H367.12v-4.481h10.858v-6.257H359.209z M325.142,127.085h7.912v-16.469h0.122
			l8.314,16.469h9.648v-27.45h-7.912v16.389h-0.123l-8.235-16.389h-9.727V127.085z M309.158,127.085h7.91v-27.45h-7.91V127.085z
			 M273.798,99.635v27.45h7.912v-10.617h10.736v-6.094H281.71v-4.481h10.858v-6.257H273.798z M253.657,120.706
			c-3.513,0-5.288-2.826-5.288-7.346c0-4.523,1.774-7.347,5.288-7.347c3.553,0,5.207,2.824,5.207,7.347
			C258.863,117.88,257.209,120.706,253.657,120.706 M253.657,127.729c8.195,0,13.683-5.206,13.683-14.369
			c0-9.162-5.488-14.372-13.683-14.372c-8.154,0-13.764,5.21-13.764,14.372C239.893,122.523,245.502,127.729,253.657,127.729"/>
		<path d="M401.676,85.982h7.912V75.929l9.483-17.397h-8.758l-4.481,9.81h-0.161l-4.318-9.81h-8.964l9.287,17.397V85.982z
			 M376.325,85.982h7.913V64.95h6.82v-6.417h-21.596v6.417h6.862V85.982z M352.267,85.982h17.721v-6.5h-9.809v-20.95h-7.912V85.982z
			 M332.57,86.626c6.457,0,11.827-3.108,11.827-10.778V58.532h-7.912v16.59c0,3.107-1.696,4.479-3.915,4.479
			s-3.915-1.372-3.915-4.479v-16.59h-7.913v17.316C320.742,83.519,326.113,86.626,332.57,86.626 M307.301,86.424
			c3.27,0,6.016-0.848,7.671-1.694v-6.903c-1.572,0.848-3.39,1.575-6.258,1.575c-2.864,0-7.022-2.18-7.022-7.147
			c0-4.962,3.796-7.305,7.466-7.305c2.502,0,4.242,0.566,5.773,1.332V59.46c-1.614-0.724-3.632-1.29-6.863-1.29
			c-8.111,0-15.015,5.329-15.015,14.085C293.053,81.015,299.229,86.424,307.301,86.424 M273.113,74.678l2.703-10.131h0.364
			l2.707,10.131H273.113z M281.91,85.982h8.117l-8.236-27.45h-11.584l-8.195,27.45h8.112l1.497-5.691h8.758L281.91,85.982z
			 M241.506,58.532v27.45h7.912V75.365h10.736v-6.095h-10.736V64.79h10.858v-6.257H241.506z"/>
	</g>
</g>
</svg>
