<svg xmlns="http://www.w3.org/2000/svg" viewBox="46.3 10.0 933.1 600.0" width="933" height="600" role="img" aria-label="Roots into the heap: registers, the stack and the data segment, and the transitive closure of what they reach">
<title>Roots into the heap: registers, the stack and the data segment, and the transitive closure of what they reach</title>
<style>svg{--ink:#131C2A;--ink-2:#39485C;--muted:#5D6E85;--line:rgba(19,28,42,.18);--syn:#A2661A;--sem:#1F6C86;--bad:#A63E5A;--panel:#FFFFFF;--ground:#EFF1F3}@media (prefers-color-scheme: dark){svg{--ink:#E7EDF6;--ink-2:#B6C4D8;--muted:#8093AF;--line:rgba(122,162,204,.16);--syn:#E0A550;--sem:#5BB0C7;--bad:#C8607A;--panel:#111C2E;--ground:#080E18}}text{font-family:"JetBrains Mono","SFMono-Regular","SF Mono","Cascadia Mono",Menlo,Consolas,"DejaVu Sans Mono",monospace}.serif{font-family:"Iowan Old Style","Palatino Linotype",Palatino,"Book Antiqua","URW Palladio L",Georgia,serif}</style>
<text x="200" y="40" font-size="22.91" fill="var(--syn)" text-anchor="middle" dominant-baseline="central" class="serif">roots</text>
<rect x="120" y="160" width="220" height="220" fill="none" stroke="var(--syn)" stroke-width="1.2"/>
<text x="230" y="150" font-size="19.64" fill="var(--muted)" text-anchor="middle" dominant-baseline="central" class="serif">CPU</text>
<text x="230" y="270" font-size="21.27" fill="var(--syn)" text-anchor="middle" dominant-baseline="central" class="serif">registers</text>
<line x1="90" y1="380" x2="90" y2="160" stroke="var(--line)" stroke-width="1"/><path d="M90 160 L91.95 164.61 L88.05 164.61 Z" fill="var(--line)"/>
<text x="80" y="375" font-size="16.36" fill="var(--muted)" text-anchor="end" dominant-baseline="central">0</text>
<text x="80" y="165" font-size="16.36" fill="var(--muted)" text-anchor="end" dominant-baseline="central">31</text>
<rect x="500" y="60" width="220" height="480" fill="none" stroke="var(--syn)" stroke-width="1.2"/>
<line x1="760" y1="540" x2="760" y2="60" stroke="var(--line)" stroke-width="1.2"/><path d="M760 60 L762.34 65.53 L757.66 65.53 Z" fill="var(--line)"/>
<text x="780" y="535" font-size="16.36" fill="var(--muted)" text-anchor="start" dominant-baseline="central">0</text>
<text x="780" y="65" font-size="16.36" fill="var(--muted)" text-anchor="start" dominant-baseline="central">2³²−1</text>
<line x1="500" y1="130" x2="720" y2="130" stroke="var(--line)" stroke-width="1" stroke-dasharray="6 4"/>
<line x1="500" y1="190" x2="720" y2="190" stroke="var(--line)" stroke-width="1" stroke-dasharray="6 4"/>
<text x="610" y="95" font-size="21.27" fill="var(--syn)" text-anchor="middle" dominant-baseline="central" class="serif">stack</text>
<text x="610" y="280" font-size="21.27" fill="var(--syn)" text-anchor="middle" dominant-baseline="central" class="serif">heap</text>
<line x1="500" y1="370" x2="720" y2="370" stroke="var(--line)" stroke-width="1"/>
<line x1="500" y1="420" x2="720" y2="420" stroke="var(--line)" stroke-width="1"/>
<text x="610" y="395" font-size="21.27" fill="var(--syn)" text-anchor="middle" dominant-baseline="central" class="serif">data</text>
<line x1="500" y1="470" x2="720" y2="470" stroke="var(--line)" stroke-width="1"/>
<text x="610" y="445" font-size="21.27" fill="var(--syn)" text-anchor="middle" dominant-baseline="central" class="serif">code</text>
<line x1="340" y1="270" x2="500" y2="270" stroke="var(--syn)" stroke-width="1.2"/><path d="M500 270 L495.39 271.95 L495.39 268.05 Z" fill="var(--syn)"/>
<line x1="500" y1="300" x2="340" y2="300" stroke="var(--syn)" stroke-width="1.2"/><path d="M340 300 L344.61 298.05 L344.61 301.95 Z" fill="var(--syn)"/>
<text x="440" y="80" font-size="16.36" fill="var(--muted)" text-anchor="end" dominant-baseline="central" class="serif">local variables, parameters</text>
<text x="440" y="395" font-size="16.36" fill="var(--muted)" text-anchor="end" dominant-baseline="central" class="serif">global variables</text>
<path d="M720 90 Q800 165 722 240" fill="none" stroke="var(--syn)" stroke-width="1.2"/>
<line x1="730" y1="236" x2="722" y2="240" stroke="var(--syn)" stroke-width="1"/><path d="M722 240 L724.6 236.96 L725.99 239.75 Z" fill="var(--syn)"/>
<path d="M720 110 Q800 185 722 260" fill="none" stroke="var(--syn)" stroke-width="1.2"/>
<line x1="730" y1="256" x2="722" y2="260" stroke="var(--syn)" stroke-width="1"/><path d="M722 260 L724.6 256.96 L725.99 259.75 Z" fill="var(--syn)"/>
<path d="M720 390 Q800 345 722 300" fill="none" stroke="var(--syn)" stroke-width="1.2"/>
<line x1="730" y1="296" x2="722" y2="300" stroke="var(--syn)" stroke-width="1"/><path d="M722 300 L724.6 296.96 L725.99 299.75 Z" fill="var(--syn)"/>
<path d="M720 400 Q800 365 722 330" fill="none" stroke="var(--syn)" stroke-width="1.2"/>
<line x1="730" y1="326" x2="722" y2="330" stroke="var(--syn)" stroke-width="1"/><path d="M722 330 L724.6 326.96 L725.99 329.75 Z" fill="var(--syn)"/>
<text x="830" y="170" font-size="18" fill="var(--syn)" text-anchor="start" dominant-baseline="central" class="serif">roots</text>
<text x="830" y="360" font-size="18" fill="var(--syn)" text-anchor="start" dominant-baseline="central" class="serif">roots</text>
<path d="M720 240 Q760 270 722 300" fill="none" stroke="var(--sem)" stroke-width="1.2"/>
<line x1="730" y1="296" x2="722" y2="300" stroke="var(--sem)" stroke-width="1"/><path d="M722 300 L724.6 296.96 L725.99 299.75 Z" fill="var(--sem)"/>
<path d="M720 260 Q760 295 722 330" fill="none" stroke="var(--sem)" stroke-width="1.2"/>
<line x1="730" y1="326" x2="722" y2="330" stroke="var(--sem)" stroke-width="1"/><path d="M722 330 L724.6 326.96 L725.99 329.75 Z" fill="var(--sem)"/>
<text x="840" y="290" font-size="16.36" fill="var(--sem)" text-anchor="start" dominant-baseline="central" class="serif">transitive closure</text>
<path d="M120 340 Q40 560 500 560 Q900 560 850 240 Q820 200 760 220" fill="none" stroke="var(--syn)" stroke-width="1" stroke-dasharray="4 3"/>
<text x="300" y="585" font-size="16.36" fill="var(--muted)" text-anchor="start" dominant-baseline="central" class="serif">registers as roots (not in selfie)</text>
</svg>
